<svg xmlns="http://www.w3.org/2000/svg" xmlns:xlink="http://www.w3.org/1999/xlink" width="1080" zoomAndPan="magnify" viewBox="0 0 810 809.999993" height="1080" preserveAspectRatio="xMidYMid meet" version="1.0"><defs><g/><clipPath id="8202be9c4b"><path d="M 17.578125 236.953125 L 367.417969 236.953125 L 367.417969 359.632812 L 17.578125 359.632812 Z M 17.578125 236.953125 " clip-rule="nonzero"/></clipPath><clipPath id="d0e18a164d"><path d="M 17.578125 346.757812 L 288.304688 346.757812 L 288.304688 535.558594 L 17.578125 535.558594 Z M 17.578125 346.757812 " clip-rule="nonzero"/></clipPath></defs><rect x="-81" width="972" fill="#ffffff" y="-80.999999" height="971.999992" fill-opacity="1"/><rect x="-81" width="972" fill="#ffffff" y="-80.999999" height="971.999992" fill-opacity="1"/><g clip-path="url(#8202be9c4b)"><path fill="#004aad" d="M 288.300781 236.953125 L 139.988281 236.953125 C 51.300781 236.953125 17.578125 291.757812 17.578125 359.359375 C 19.507812 357.144531 21.515625 354.984375 23.613281 352.886719 C 47.246094 329.257812 78.667969 316.242188 112.089844 316.242188 L 111.429688 316.070312 L 288.300781 316.070312 C 331.996094 316.070312 367.417969 280.648438 367.417969 236.953125 L 288.300781 236.953125 " fill-opacity="1" fill-rule="nonzero"/></g><g clip-path="url(#d0e18a164d)"><path fill="#004aad" d="M 204.261719 456.757812 L 112.394531 456.757812 C 103.761719 456.757812 96.535156 449.695312 96.699219 441.066406 C 96.859375 432.703125 103.6875 425.972656 112.089844 425.972656 L 209.183594 425.972656 C 252.878906 425.972656 288.300781 390.550781 288.300781 346.855469 L 112.089844 346.855469 C 59.894531 346.855469 17.578125 389.167969 17.578125 441.367188 C 17.578125 493.5625 59.894531 535.875 112.089844 535.875 L 125.144531 535.875 C 168.839844 535.875 204.261719 500.453125 204.261719 456.757812 " fill-opacity="1" fill-rule="nonzero"/></g><g fill="#004aad" fill-opacity="1"><g transform="translate(220.670779, 534.826025)"><g><path d="M 47.859375 -88.53125 C 78.828125 -88.53125 94.3125 -73.773438 94.3125 -44.265625 C 94.3125 -14.753906 78.828125 0 47.859375 0 L 9.515625 0 L 9.515625 -88.53125 Z M 37.953125 -21.234375 L 47.34375 -21.234375 C 59.269531 -21.234375 65.234375 -27.625 65.234375 -40.40625 L 65.234375 -48.125 C 65.234375 -60.90625 59.269531 -67.296875 47.34375 -67.296875 L 37.953125 -67.296875 Z M 37.953125 -21.234375 "/></g></g></g><g fill="#004aad" fill-opacity="1"><g transform="translate(320.727007, 534.826025)"><g><path d="M 46.84375 -21.234375 L 88.90625 -21.234375 L 88.90625 0 L 3.09375 0 L 3.09375 -9.140625 L 44.140625 -67.296875 L 6.171875 -67.296875 L 6.171875 -88.53125 L 87.890625 -88.53125 L 87.890625 -79.390625 Z M 46.84375 -21.234375 "/></g></g></g><g fill="#004aad" fill-opacity="1"><g transform="translate(413.581277, 534.826025)"><g><path d="M 9.515625 -88.53125 L 86.078125 -88.53125 L 86.078125 -67.296875 L 37.953125 -67.296875 L 37.953125 -55.078125 L 79.140625 -55.078125 L 79.140625 -34.734375 L 37.953125 -34.734375 L 37.953125 -21.234375 L 86.984375 -21.234375 L 86.984375 0 L 9.515625 0 Z M 9.515625 -88.53125 "/></g></g></g><g fill="#004aad" fill-opacity="1"><g transform="translate(506.435547, 534.826025)"><g><path d="M 9.515625 -88.53125 L 86.078125 -88.53125 L 86.078125 -67.296875 L 37.953125 -67.296875 L 37.953125 -55.078125 L 79.140625 -55.078125 L 79.140625 -34.734375 L 37.953125 -34.734375 L 37.953125 -21.234375 L 86.984375 -21.234375 L 86.984375 0 L 9.515625 0 Z M 9.515625 -88.53125 "/></g></g></g><g fill="#004aad" fill-opacity="1"><g transform="translate(599.289816, 534.826025)"><g><path d="M 60.46875 -65.875 L 60.46875 0 L 32.046875 0 L 32.046875 -65.875 L 2.953125 -65.875 L 2.953125 -88.53125 L 89.421875 -88.53125 L 89.421875 -65.875 Z M 60.46875 -65.875 "/></g></g></g><g fill="#004aad" fill-opacity="1"><g transform="translate(692.144086, 534.826025)"><g><path d="M 68.84375 0 L 65.109375 -12.484375 L 34.09375 -12.484375 L 30.359375 0 L 1.28125 0 L 33.578125 -88.53125 L 66.65625 -88.53125 L 98.953125 0 Z M 40.015625 -32.296875 L 59.1875 -32.296875 L 49.921875 -63.828125 L 49.40625 -63.828125 Z M 40.015625 -32.296875 "/></g></g></g></svg>