<svg xmlns="http://www.w3.org/2000/svg" xmlns:xlink="http://www.w3.org/1999/xlink" width="1080" zoomAndPan="magnify" viewBox="0 0 810 809.999993" height="1080" preserveAspectRatio="xMidYMid meet" version="1.0"><path fill="#155fb7" d="M 307.800781 226.800781 C 294.515625 226.800781 283.5 215.785156 283.5 202.5 L 283.5 105.300781 C 283.5 92.015625 294.515625 81 307.800781 81 C 321.082031 81 332.101562 92.015625 332.101562 105.300781 L 332.101562 202.5 C 332.101562 215.785156 321.082031 226.800781 307.800781 226.800781 Z M 307.800781 226.800781 " fill-opacity="1" fill-rule="nonzero"/><path fill="#155fb7" d="M 502.199219 226.800781 C 488.914062 226.800781 477.898438 215.785156 477.898438 202.5 L 477.898438 105.300781 C 477.898438 92.015625 488.914062 81 502.199219 81 C 515.484375 81 526.5 92.015625 526.5 105.300781 L 526.5 202.5 C 526.5 215.785156 515.484375 226.800781 502.199219 226.800781 Z M 502.199219 226.800781 " fill-opacity="1" fill-rule="nonzero"/><path fill="#155fb7" d="M 307.800781 729 C 294.515625 729 283.5 717.984375 283.5 704.699219 L 283.5 607.5 C 283.5 594.214844 294.515625 583.199219 307.800781 583.199219 C 321.082031 583.199219 332.101562 594.214844 332.101562 607.5 L 332.101562 704.699219 C 332.101562 717.984375 321.082031 729 307.800781 729 Z M 307.800781 729 " fill-opacity="1" fill-rule="nonzero"/><path fill="#155fb7" d="M 502.199219 729 C 488.914062 729 477.898438 717.984375 477.898438 704.699219 L 477.898438 607.5 C 477.898438 594.214844 488.914062 583.199219 502.199219 583.199219 C 515.484375 583.199219 526.5 594.214844 526.5 607.5 L 526.5 704.699219 C 526.5 717.984375 515.484375 729 502.199219 729 Z M 502.199219 729 " fill-opacity="1" fill-rule="nonzero"/><path fill="#155fb7" d="M 704.699219 332.101562 L 607.5 332.101562 C 594.214844 332.101562 583.199219 321.085938 583.199219 307.800781 C 583.199219 294.515625 594.214844 283.5 607.5 283.5 L 704.699219 283.5 C 717.984375 283.5 729 294.515625 729 307.800781 C 729 321.085938 717.984375 332.101562 704.699219 332.101562 Z M 704.699219 332.101562 " fill-opacity="1" fill-rule="nonzero"/><path fill="#155fb7" d="M 704.699219 526.5 L 607.5 526.5 C 594.214844 526.5 583.199219 515.484375 583.199219 502.199219 C 583.199219 488.914062 594.214844 477.898438 607.5 477.898438 L 704.699219 477.898438 C 717.984375 477.898438 729 488.914062 729 502.199219 C 729 515.484375 717.984375 526.5 704.699219 526.5 Z M 704.699219 526.5 " fill-opacity="1" fill-rule="nonzero"/><path fill="#155fb7" d="M 202.5 332.101562 L 105.300781 332.101562 C 92.015625 332.101562 81 321.085938 81 307.800781 C 81 294.515625 92.015625 283.5 105.300781 283.5 L 202.5 283.5 C 215.785156 283.5 226.800781 294.515625 226.800781 307.800781 C 226.800781 321.085938 215.785156 332.101562 202.5 332.101562 Z M 202.5 332.101562 " fill-opacity="1" fill-rule="nonzero"/><path fill="#155fb7" d="M 202.5 526.5 L 105.300781 526.5 C 92.015625 526.5 81 515.484375 81 502.199219 C 81 488.914062 92.015625 477.898438 105.300781 477.898438 L 202.5 477.898438 C 215.785156 477.898438 226.800781 488.914062 226.800781 502.199219 C 226.800781 515.484375 215.785156 526.5 202.5 526.5 Z M 202.5 526.5 " fill-opacity="1" fill-rule="nonzero"/><path fill="#004aad" d="M 243 178.199219 L 567 178.199219 C 568.058594 178.199219 569.121094 178.226562 570.179688 178.277344 C 571.238281 178.332031 572.296875 178.40625 573.351562 178.511719 C 574.40625 178.617188 575.460938 178.746094 576.507812 178.902344 C 577.558594 179.058594 578.601562 179.238281 579.640625 179.445312 C 580.683594 179.652344 581.714844 179.882812 582.746094 180.140625 C 583.773438 180.398438 584.796875 180.683594 585.808594 180.992188 C 586.824219 181.296875 587.832031 181.628906 588.832031 181.988281 C 589.828125 182.34375 590.816406 182.726562 591.796875 183.132812 C 592.777344 183.539062 593.746094 183.96875 594.707031 184.421875 C 595.664062 184.875 596.609375 185.351562 597.546875 185.851562 C 598.480469 186.351562 599.402344 186.875 600.3125 187.417969 C 601.222656 187.964844 602.117188 188.53125 603 189.121094 C 603.882812 189.710938 604.75 190.320312 605.601562 190.953125 C 606.453125 191.582031 607.289062 192.234375 608.109375 192.910156 C 608.929688 193.582031 609.730469 194.273438 610.515625 194.988281 C 611.300781 195.699219 612.070312 196.429688 612.820312 197.179688 C 613.570312 197.929688 614.300781 198.695312 615.011719 199.484375 C 615.726562 200.269531 616.417969 201.070312 617.089844 201.890625 C 617.765625 202.710938 618.414062 203.546875 619.046875 204.398438 C 619.679688 205.25 620.289062 206.117188 620.878906 207 C 621.46875 207.878906 622.035156 208.777344 622.582031 209.6875 C 623.125 210.597656 623.648438 211.519531 624.148438 212.453125 C 624.648438 213.390625 625.125 214.335938 625.578125 215.292969 C 626.03125 216.253906 626.460938 217.222656 626.867188 218.203125 C 627.273438 219.183594 627.65625 220.171875 628.011719 221.167969 C 628.371094 222.167969 628.703125 223.175781 629.007812 224.191406 C 629.316406 225.203125 629.601562 226.226562 629.859375 227.253906 C 630.117188 228.285156 630.347656 229.316406 630.554688 230.359375 C 630.761719 231.398438 630.941406 232.441406 631.097656 233.492188 C 631.253906 234.539062 631.382812 235.59375 631.488281 236.648438 C 631.59375 237.703125 631.667969 238.761719 631.722656 239.820312 C 631.773438 240.878906 631.800781 241.941406 631.800781 243 L 631.800781 567 C 631.800781 568.058594 631.773438 569.121094 631.722656 570.179688 C 631.667969 571.238281 631.59375 572.296875 631.488281 573.351562 C 631.382812 574.40625 631.253906 575.460938 631.097656 576.507812 C 630.941406 577.558594 630.761719 578.601562 630.554688 579.640625 C 630.347656 580.683594 630.117188 581.714844 629.859375 582.746094 C 629.601562 583.773438 629.316406 584.796875 629.007812 585.808594 C 628.703125 586.824219 628.371094 587.832031 628.011719 588.832031 C 627.65625 589.828125 627.273438 590.816406 626.867188 591.796875 C 626.460938 592.777344 626.03125 593.746094 625.578125 594.707031 C 625.125 595.664062 624.648438 596.609375 624.148438 597.546875 C 623.648438 598.480469 623.125 599.402344 622.582031 600.3125 C 622.035156 601.222656 621.46875 602.117188 620.878906 603 C 620.289062 603.882812 619.679688 604.75 619.046875 605.601562 C 618.414062 606.453125 617.765625 607.289062 617.089844 608.109375 C 616.417969 608.929688 615.726562 609.730469 615.011719 610.515625 C 614.300781 611.304688 613.570312 612.070312 612.820312 612.820312 C 612.070312 613.570312 611.300781 614.300781 610.515625 615.011719 C 609.730469 615.726562 608.929688 616.417969 608.109375 617.089844 C 607.289062 617.765625 606.453125 618.414062 605.601562 619.046875 C 604.75 619.679688 603.882812 620.289062 603 620.878906 C 602.117188 621.46875 601.222656 622.035156 600.3125 622.582031 C 599.402344 623.125 598.480469 623.648438 597.546875 624.148438 C 596.609375 624.648438 595.664062 625.125 594.707031 625.578125 C 593.746094 626.03125 592.777344 626.460938 591.796875 626.867188 C 590.816406 627.273438 589.828125 627.65625 588.832031 628.011719 C 587.832031 628.371094 586.824219 628.703125 585.808594 629.007812 C 584.796875 629.316406 583.773438 629.601562 582.746094 629.859375 C 581.714844 630.117188 580.683594 630.347656 579.640625 630.554688 C 578.601562 630.761719 577.558594 630.941406 576.507812 631.097656 C 575.460938 631.253906 574.40625 631.382812 573.351562 631.488281 C 572.296875 631.59375 571.238281 631.667969 570.179688 631.722656 C 569.121094 631.773438 568.058594 631.800781 567 631.800781 L 243 631.800781 C 241.941406 631.800781 240.878906 631.773438 239.820312 631.722656 C 238.761719 631.667969 237.703125 631.59375 236.648438 631.488281 C 235.59375 631.382812 234.539062 631.253906 233.492188 631.097656 C 232.441406 630.941406 231.398438 630.761719 230.359375 630.554688 C 229.316406 630.347656 228.285156 630.117188 227.253906 629.859375 C 226.226562 629.601562 225.203125 629.316406 224.191406 629.007812 C 223.175781 628.703125 222.167969 628.371094 221.167969 628.011719 C 220.171875 627.65625 219.183594 627.273438 218.203125 626.867188 C 217.222656 626.460938 216.253906 626.03125 215.292969 625.578125 C 214.335938 625.125 213.390625 624.648438 212.453125 624.148438 C 211.519531 623.648438 210.597656 623.125 209.6875 622.582031 C 208.777344 622.035156 207.878906 621.46875 207 620.878906 C 206.117188 620.289062 205.25 619.679688 204.398438 619.046875 C 203.546875 618.414062 202.710938 617.765625 201.890625 617.089844 C 201.070312 616.417969 200.269531 615.726562 199.484375 615.011719 C 198.695312 614.300781 197.929688 613.570312 197.179688 612.820312 C 196.429688 612.070312 195.699219 611.304688 194.988281 610.515625 C 194.273438 609.730469 193.582031 608.929688 192.910156 608.109375 C 192.234375 607.289062 191.582031 606.453125 190.953125 605.601562 C 190.320312 604.75 189.710938 603.882812 189.121094 603 C 188.53125 602.117188 187.964844 601.222656 187.417969 600.3125 C 186.875 599.402344 186.351562 598.480469 185.851562 597.546875 C 185.351562 596.609375 184.875 595.664062 184.421875 594.707031 C 183.96875 593.746094 183.539062 592.777344 183.132812 591.796875 C 182.726562 590.816406 182.34375 589.828125 181.988281 588.832031 C 181.628906 587.832031 181.296875 586.824219 180.992188 585.808594 C 180.683594 584.796875 180.398438 583.773438 180.140625 582.746094 C 179.882812 581.714844 179.652344 580.683594 179.445312 579.640625 C 179.238281 578.601562 179.058594 577.558594 178.902344 576.507812 C 178.746094 575.460938 178.617188 574.40625 178.511719 573.351562 C 178.40625 572.296875 178.332031 571.238281 178.277344 570.179688 C 178.226562 569.121094 178.199219 568.058594 178.199219 567 L 178.199219 243 C 178.199219 241.941406 178.226562 240.878906 178.277344 239.820312 C 178.332031 238.761719 178.40625 237.703125 178.511719 236.648438 C 178.617188 235.59375 178.746094 234.539062 178.902344 233.492188 C 179.058594 232.441406 179.238281 231.398438 179.445312 230.359375 C 179.652344 229.316406 179.882812 228.285156 180.140625 227.253906 C 180.398438 226.226562 180.683594 225.203125 180.992188 224.191406 C 181.296875 223.175781 181.628906 222.167969 181.988281 221.167969 C 182.34375 220.171875 182.726562 219.183594 183.132812 218.203125 C 183.539062 217.222656 183.96875 216.253906 184.421875 215.292969 C 184.875 214.335938 185.351562 213.390625 185.851562 212.453125 C 186.351562 211.519531 186.875 210.597656 187.417969 209.6875 C 187.964844 208.777344 188.53125 207.878906 189.121094 207 C 189.710938 206.117188 190.320312 205.25 190.953125 204.398438 C 191.582031 203.546875 192.234375 202.710938 192.910156 201.890625 C 193.582031 201.070312 194.273438 200.269531 194.988281 199.484375 C 195.699219 198.695312 196.429688 197.929688 197.179688 197.179688 C 197.929688 196.429688 198.695312 195.699219 199.484375 194.988281 C 200.269531 194.273438 201.070312 193.582031 201.890625 192.910156 C 202.710938 192.234375 203.546875 191.582031 204.398438 190.953125 C 205.25 190.320312 206.117188 189.710938 207 189.121094 C 207.878906 188.53125 208.777344 187.964844 209.6875 187.417969 C 210.597656 186.875 211.519531 186.351562 212.453125 185.851562 C 213.390625 185.351562 214.335938 184.875 215.292969 184.421875 C 216.253906 183.96875 217.222656 183.539062 218.203125 183.132812 C 219.183594 182.726562 220.171875 182.34375 221.167969 181.988281 C 222.167969 181.628906 223.175781 181.296875 224.191406 180.992188 C 225.203125 180.683594 226.226562 180.398438 227.253906 180.140625 C 228.285156 179.882812 229.316406 179.652344 230.359375 179.445312 C 231.398438 179.238281 232.441406 179.058594 233.492188 178.902344 C 234.539062 178.746094 235.59375 178.617188 236.648438 178.511719 C 237.703125 178.40625 238.761719 178.332031 239.820312 178.277344 C 240.878906 178.226562 241.941406 178.199219 243 178.199219 Z M 243 178.199219 " fill-opacity="1" fill-rule="nonzero"/><path fill="#edebea" d="M 350.890625 510.300781 C 344.734375 510.300781 338.578125 508.03125 333.71875 503.171875 L 252.71875 422.171875 C 243.324219 412.777344 243.324219 397.222656 252.71875 387.828125 L 333.71875 306.828125 C 343.117188 297.433594 358.667969 297.433594 368.0625 306.828125 C 377.460938 316.222656 377.460938 331.777344 368.0625 341.171875 L 304.234375 405 L 368.0625 468.828125 C 377.460938 478.222656 377.460938 493.777344 368.0625 503.171875 C 363.203125 508.03125 357.046875 510.300781 350.890625 510.300781 Z M 350.890625 510.300781 " fill-opacity="1" fill-rule="nonzero"/><path fill="#edebea" d="M 459.109375 510.300781 C 452.953125 510.300781 446.796875 508.03125 441.9375 503.171875 C 432.539062 493.777344 432.539062 478.222656 441.9375 468.828125 L 505.765625 405 L 441.9375 341.171875 C 432.539062 331.777344 432.539062 316.222656 441.9375 306.828125 C 451.332031 297.433594 466.882812 297.433594 476.28125 306.828125 L 557.28125 387.828125 C 566.675781 397.222656 566.675781 412.777344 557.28125 422.171875 L 476.28125 503.171875 C 471.421875 508.03125 465.265625 510.300781 459.109375 510.300781 Z M 459.109375 510.300781 " fill-opacity="1" fill-rule="nonzero"/></svg>