<svg xmlns="http://www.w3.org/2000/svg" xmlns:xlink="http://www.w3.org/1999/xlink" width="1080" zoomAndPan="magnify" viewBox="0 0 810 809.999993" height="1080" preserveAspectRatio="xMidYMid meet" version="1.0"><defs><clipPath id="84807c7410"><path d="M 509 155 L 669.976562 155 L 669.976562 292 L 509 292 Z M 509 155 " clip-rule="nonzero"/></clipPath></defs><path fill="#4a53e2" d="M 496.511719 653.746094 L 254.191406 653.746094 C 240.777344 653.746094 230.441406 643.273438 232.253906 631.511719 L 246.082031 541.761719 C 253.601562 492.964844 300.707031 456.585938 356.371094 456.585938 L 382.726562 456.585938 C 444.160156 456.585938 496.148438 496.734375 504.445312 550.589844 L 517.121094 632.855469 C 518.824219 643.90625 509.117188 653.746094 496.511719 653.746094 Z M 496.511719 653.746094 " fill-opacity="1" fill-rule="nonzero"/><path fill="#1b136a" d="M 401.988281 446.523438 C 401.988281 447.648438 401.933594 448.773438 401.820312 449.894531 C 401.710938 451.015625 401.546875 452.128906 401.328125 453.234375 C 401.105469 454.335938 400.832031 455.429688 400.507812 456.507812 C 400.179688 457.585938 399.800781 458.644531 399.371094 459.683594 C 398.941406 460.722656 398.460938 461.742188 397.929688 462.734375 C 397.398438 463.726562 396.820312 464.691406 396.195312 465.628906 C 395.570312 466.566406 394.898438 467.46875 394.183594 468.339844 C 393.472656 469.210938 392.714844 470.042969 391.921875 470.839844 C 391.125 471.636719 390.292969 472.390625 389.421875 473.105469 C 388.550781 473.820312 387.648438 474.492188 386.710938 475.117188 C 385.777344 475.742188 384.8125 476.320312 383.820312 476.851562 C 382.824219 477.382812 381.808594 477.863281 380.769531 478.292969 C 379.730469 478.726562 378.671875 479.105469 377.59375 479.429688 C 376.515625 479.757812 375.425781 480.03125 374.324219 480.25 C 373.21875 480.472656 372.105469 480.636719 370.984375 480.746094 C 369.867188 480.855469 368.742188 480.914062 367.617188 480.914062 C 366.492188 480.914062 365.367188 480.855469 364.25 480.746094 C 363.128906 480.636719 362.015625 480.472656 360.910156 480.25 C 359.808594 480.03125 358.71875 479.757812 357.640625 479.429688 C 356.5625 479.105469 355.503906 478.726562 354.464844 478.292969 C 353.425781 477.863281 352.40625 477.382812 351.414062 476.851562 C 350.421875 476.320312 349.457031 475.742188 348.523438 475.117188 C 347.585938 474.492188 346.683594 473.820312 345.8125 473.105469 C 344.941406 472.390625 344.109375 471.636719 343.3125 470.839844 C 342.519531 470.042969 341.761719 469.210938 341.050781 468.339844 C 340.335938 467.46875 339.664062 466.566406 339.039062 465.628906 C 338.414062 464.691406 337.835938 463.726562 337.304688 462.734375 C 336.773438 461.742188 336.292969 460.722656 335.863281 459.683594 C 335.433594 458.644531 335.054688 457.585938 334.726562 456.507812 C 334.402344 455.429688 334.128906 454.335938 333.90625 453.234375 C 333.6875 452.128906 333.523438 451.015625 333.414062 449.894531 C 333.300781 448.773438 333.246094 447.648438 333.246094 446.523438 C 333.246094 445.398438 333.300781 444.273438 333.414062 443.152344 C 333.523438 442.03125 333.6875 440.917969 333.90625 439.816406 C 334.128906 438.710938 334.402344 437.617188 334.726562 436.542969 C 335.054688 435.464844 335.433594 434.402344 335.863281 433.363281 C 336.292969 432.324219 336.773438 431.304688 337.304688 430.3125 C 337.835938 429.320312 338.414062 428.355469 339.039062 427.417969 C 339.664062 426.480469 340.335938 425.578125 341.050781 424.707031 C 341.761719 423.835938 342.519531 423.003906 343.3125 422.207031 C 344.109375 421.410156 344.941406 420.65625 345.8125 419.941406 C 346.683594 419.226562 347.585938 418.554688 348.523438 417.929688 C 349.457031 417.304688 350.421875 416.726562 351.414062 416.195312 C 352.40625 415.664062 353.425781 415.183594 354.464844 414.753906 C 355.503906 414.320312 356.5625 413.941406 357.640625 413.617188 C 358.71875 413.289062 359.808594 413.015625 360.910156 412.796875 C 362.015625 412.574219 363.128906 412.410156 364.25 412.300781 C 365.367188 412.191406 366.492188 412.136719 367.617188 412.136719 C 368.742188 412.136719 369.867188 412.191406 370.984375 412.300781 C 372.105469 412.410156 373.21875 412.574219 374.324219 412.796875 C 375.425781 413.015625 376.515625 413.289062 377.59375 413.617188 C 378.671875 413.941406 379.730469 414.320312 380.769531 414.753906 C 381.808594 415.183594 382.824219 415.664062 383.820312 416.195312 C 384.8125 416.726562 385.777344 417.304688 386.710938 417.929688 C 387.648438 418.554688 388.550781 419.226562 389.421875 419.941406 C 390.292969 420.65625 391.125 421.410156 391.921875 422.207031 C 392.714844 423.003906 393.472656 423.835938 394.183594 424.707031 C 394.898438 425.578125 395.570312 426.480469 396.195312 427.417969 C 396.820312 428.355469 397.398438 429.320312 397.929688 430.3125 C 398.460938 431.304688 398.941406 432.324219 399.371094 433.363281 C 399.800781 434.402344 400.179688 435.464844 400.507812 436.542969 C 400.832031 437.617188 401.105469 438.710938 401.328125 439.816406 C 401.546875 440.917969 401.710938 442.03125 401.820312 443.152344 C 401.933594 444.273438 401.988281 445.398438 401.988281 446.523438 Z M 401.988281 446.523438 " fill-opacity="1" fill-rule="nonzero"/><path fill="#1b136a" d="M 393.898438 204.992188 C 393.898438 205.675781 393.867188 206.359375 393.800781 207.039062 C 393.730469 207.71875 393.632812 208.394531 393.5 209.066406 C 393.363281 209.738281 393.199219 210.402344 393 211.054688 C 392.800781 211.710938 392.570312 212.351562 392.308594 212.984375 C 392.046875 213.617188 391.757812 214.234375 391.433594 214.839844 C 391.113281 215.441406 390.761719 216.027344 390.382812 216.597656 C 390 217.164062 389.59375 217.714844 389.160156 218.242188 C 388.726562 218.773438 388.269531 219.277344 387.785156 219.761719 C 387.300781 220.246094 386.796875 220.703125 386.265625 221.136719 C 385.738281 221.574219 385.191406 221.980469 384.621094 222.359375 C 384.054688 222.738281 383.46875 223.089844 382.863281 223.414062 C 382.261719 223.734375 381.644531 224.027344 381.011719 224.289062 C 380.378906 224.550781 379.738281 224.78125 379.082031 224.980469 C 378.429688 225.179688 377.765625 225.34375 377.097656 225.476562 C 376.425781 225.613281 375.75 225.710938 375.070312 225.777344 C 374.390625 225.847656 373.707031 225.878906 373.023438 225.878906 C 372.339844 225.878906 371.65625 225.847656 370.976562 225.777344 C 370.296875 225.710938 369.621094 225.613281 368.949219 225.476562 C 368.28125 225.34375 367.617188 225.179688 366.964844 224.980469 C 366.308594 224.78125 365.664062 224.550781 365.035156 224.289062 C 364.402344 224.027344 363.785156 223.734375 363.183594 223.414062 C 362.578125 223.089844 361.992188 222.738281 361.425781 222.359375 C 360.855469 221.980469 360.308594 221.574219 359.78125 221.136719 C 359.25 220.703125 358.746094 220.246094 358.261719 219.761719 C 357.777344 219.277344 357.320312 218.773438 356.886719 218.242188 C 356.453125 217.714844 356.046875 217.164062 355.664062 216.597656 C 355.285156 216.027344 354.933594 215.441406 354.613281 214.839844 C 354.289062 214.234375 353.996094 213.617188 353.734375 212.984375 C 353.472656 212.351562 353.246094 211.710938 353.046875 211.054688 C 352.847656 210.402344 352.679688 209.738281 352.546875 209.066406 C 352.414062 208.394531 352.316406 207.71875 352.246094 207.039062 C 352.179688 206.359375 352.148438 205.675781 352.148438 204.992188 C 352.148438 204.308594 352.179688 203.625 352.246094 202.945312 C 352.316406 202.265625 352.414062 201.589844 352.546875 200.917969 C 352.679688 200.246094 352.847656 199.582031 353.046875 198.929688 C 353.246094 198.273438 353.472656 197.628906 353.734375 197 C 353.996094 196.367188 354.289062 195.75 354.613281 195.144531 C 354.933594 194.542969 355.285156 193.957031 355.664062 193.386719 C 356.046875 192.820312 356.453125 192.269531 356.886719 191.742188 C 357.320312 191.210938 357.777344 190.707031 358.261719 190.222656 C 358.746094 189.738281 359.25 189.28125 359.78125 188.84375 C 360.308594 188.410156 360.855469 188.003906 361.425781 187.625 C 361.992188 187.246094 362.578125 186.894531 363.183594 186.570312 C 363.785156 186.25 364.402344 185.957031 365.035156 185.695312 C 365.664062 185.433594 366.308594 185.203125 366.964844 185.003906 C 367.617188 184.804688 368.28125 184.640625 368.949219 184.503906 C 369.621094 184.371094 370.296875 184.273438 370.976562 184.203125 C 371.65625 184.136719 372.339844 184.105469 373.023438 184.105469 C 373.707031 184.105469 374.390625 184.136719 375.070312 184.203125 C 375.75 184.273438 376.425781 184.371094 377.097656 184.503906 C 377.765625 184.640625 378.429688 184.804688 379.082031 185.003906 C 379.738281 185.203125 380.378906 185.433594 381.011719 185.695312 C 381.644531 185.957031 382.261719 186.25 382.863281 186.570312 C 383.46875 186.894531 384.054688 187.246094 384.621094 187.625 C 385.191406 188.003906 385.738281 188.410156 386.265625 188.84375 C 386.796875 189.28125 387.300781 189.738281 387.785156 190.222656 C 388.269531 190.707031 388.726562 191.210938 389.160156 191.742188 C 389.59375 192.269531 390 192.820312 390.382812 193.386719 C 390.761719 193.957031 391.113281 194.542969 391.433594 195.144531 C 391.757812 195.75 392.046875 196.367188 392.308594 197 C 392.570312 197.628906 392.800781 198.273438 393 198.929688 C 393.199219 199.582031 393.363281 200.246094 393.5 200.917969 C 393.632812 201.589844 393.730469 202.265625 393.800781 202.945312 C 393.867188 203.625 393.898438 204.308594 393.898438 204.992188 Z M 393.898438 204.992188 " fill-opacity="1" fill-rule="nonzero"/><path fill="#1b136a" d="M 407.078125 123.867188 C 400.820312 125.164062 395.550781 133.179688 391.84375 137.984375 C 382.464844 150.125 375.613281 163.515625 371.1875 177.398438 C 369.46875 182.789062 365.238281 192.71875 368.902344 197.730469 C 369.945312 199.160156 371.484375 199.308594 372.855469 198.242188 C 377.179688 194.878906 377.03125 185.550781 378.347656 180.4375 C 381.972656 166.339844 387.949219 153.335938 396.257812 141.390625 C 399.675781 136.472656 406.59375 130.582031 407.890625 124.679688 C 408 124.167969 407.582031 123.761719 407.078125 123.867188 Z M 407.078125 123.867188 " fill-opacity="1" fill-rule="nonzero"/><path fill="#4a53e2" d="M 420.792969 126.027344 C 420.792969 126.964844 420.703125 127.898438 420.519531 128.820312 C 420.335938 129.742188 420.0625 130.640625 419.703125 131.507812 C 419.34375 132.378906 418.902344 133.203125 418.382812 133.984375 C 417.859375 134.769531 417.265625 135.492188 416.601562 136.15625 C 415.933594 136.824219 415.210938 137.417969 414.429688 137.9375 C 413.648438 138.460938 412.824219 138.902344 411.953125 139.261719 C 411.085938 139.625 410.191406 139.894531 409.269531 140.078125 C 408.34375 140.261719 407.414062 140.355469 406.472656 140.355469 C 405.535156 140.355469 404.601562 140.261719 403.679688 140.078125 C 402.757812 139.894531 401.863281 139.625 400.992188 139.261719 C 400.125 138.902344 399.300781 138.460938 398.519531 137.9375 C 397.734375 137.417969 397.011719 136.824219 396.347656 136.15625 C 395.683594 135.492188 395.089844 134.769531 394.566406 133.984375 C 394.042969 133.203125 393.601562 132.378906 393.242188 131.507812 C 392.882812 130.640625 392.613281 129.742188 392.429688 128.820312 C 392.246094 127.898438 392.152344 126.964844 392.152344 126.027344 C 392.152344 125.085938 392.246094 124.152344 392.429688 123.230469 C 392.613281 122.308594 392.882812 121.410156 393.242188 120.542969 C 393.601562 119.671875 394.042969 118.847656 394.566406 118.066406 C 395.089844 117.28125 395.683594 116.558594 396.347656 115.894531 C 397.011719 115.226562 397.734375 114.632812 398.519531 114.113281 C 399.300781 113.589844 400.125 113.148438 400.992188 112.789062 C 401.863281 112.425781 402.757812 112.15625 403.679688 111.972656 C 404.601562 111.789062 405.535156 111.695312 406.472656 111.695312 C 407.414062 111.695312 408.34375 111.789062 409.269531 111.972656 C 410.191406 112.15625 411.085938 112.425781 411.953125 112.789062 C 412.824219 113.148438 413.648438 113.589844 414.429688 114.113281 C 415.210938 114.632812 415.933594 115.226562 416.601562 115.894531 C 417.265625 116.558594 417.859375 117.28125 418.382812 118.066406 C 418.902344 118.847656 419.34375 119.671875 419.703125 120.542969 C 420.0625 121.410156 420.335938 122.308594 420.519531 123.230469 C 420.703125 124.152344 420.792969 125.085938 420.792969 126.027344 Z M 420.792969 126.027344 " fill-opacity="1" fill-rule="nonzero"/><path fill="#1b136a" d="M 241.515625 400.308594 L 222.171875 395.023438 C 213.90625 392.765625 208.175781 385.253906 208.175781 376.679688 L 208.175781 314.78125 C 208.175781 306.207031 213.90625 298.695312 222.171875 296.4375 L 241.515625 291.152344 C 253.605469 287.851562 265.523438 296.957031 265.523438 309.496094 L 265.523438 381.964844 C 265.523438 394.503906 253.605469 403.609375 241.515625 400.308594 Z M 241.515625 400.308594 " fill-opacity="1" fill-rule="nonzero"/><path fill="#1b136a" d="M 504.53125 400.308594 L 523.871094 395.023438 C 532.136719 392.765625 537.871094 385.253906 537.871094 376.679688 L 537.871094 314.78125 C 537.871094 306.207031 532.136719 298.695312 523.871094 296.4375 L 504.53125 291.152344 C 492.441406 287.851562 480.523438 296.957031 480.523438 309.496094 L 480.523438 381.964844 C 480.523438 394.503906 492.441406 403.609375 504.53125 400.308594 Z M 504.53125 400.308594 " fill-opacity="1" fill-rule="nonzero"/><path fill="#4a53e2" d="M 309.925781 202.828125 L 436.121094 202.828125 C 437.316406 202.828125 438.511719 202.855469 439.707031 202.914062 C 440.902344 202.972656 442.09375 203.0625 443.285156 203.179688 C 444.472656 203.296875 445.660156 203.441406 446.84375 203.617188 C 448.027344 203.792969 449.203125 203.996094 450.378906 204.230469 C 451.550781 204.464844 452.71875 204.726562 453.878906 205.019531 C 455.039062 205.308594 456.1875 205.628906 457.332031 205.976562 C 458.476562 206.324219 459.613281 206.699219 460.738281 207.101562 C 461.867188 207.503906 462.980469 207.933594 464.085938 208.390625 C 465.191406 208.851562 466.285156 209.335938 467.363281 209.847656 C 468.445312 210.359375 469.515625 210.894531 470.570312 211.460938 C 471.625 212.023438 472.664062 212.613281 473.6875 213.230469 C 474.714844 213.84375 475.726562 214.484375 476.71875 215.148438 C 477.714844 215.8125 478.691406 216.503906 479.652344 217.214844 C 480.613281 217.929688 481.554688 218.664062 482.480469 219.421875 C 483.402344 220.183594 484.308594 220.964844 485.195312 221.765625 C 486.082031 222.570312 486.949219 223.394531 487.792969 224.242188 C 488.640625 225.085938 489.464844 225.953125 490.265625 226.839844 C 491.070312 227.726562 491.851562 228.632812 492.609375 229.558594 C 493.367188 230.484375 494.101562 231.425781 494.816406 232.386719 C 495.527344 233.347656 496.214844 234.328125 496.882812 235.320312 C 497.546875 236.316406 498.183594 237.328125 498.800781 238.351562 C 499.414062 239.378906 500.003906 240.421875 500.566406 241.476562 C 501.132812 242.53125 501.667969 243.597656 502.179688 244.679688 C 502.691406 245.761719 503.175781 246.855469 503.632812 247.960938 C 504.089844 249.066406 504.523438 250.183594 504.925781 251.308594 C 505.328125 252.4375 505.703125 253.574219 506.050781 254.71875 C 506.398438 255.863281 506.714844 257.015625 507.007812 258.175781 C 507.296875 259.335938 507.558594 260.503906 507.792969 261.679688 C 508.027344 262.851562 508.230469 264.03125 508.40625 265.214844 C 508.582031 266.398438 508.726562 267.585938 508.84375 268.777344 C 508.960938 269.964844 509.050781 271.160156 509.109375 272.355469 C 509.167969 273.550781 509.195312 274.746094 509.195312 275.941406 L 509.195312 369.535156 C 509.195312 370.730469 509.167969 371.925781 509.109375 373.121094 C 509.050781 374.316406 508.960938 375.511719 508.84375 376.703125 C 508.726562 377.890625 508.582031 379.078125 508.40625 380.261719 C 508.230469 381.445312 508.027344 382.625 507.792969 383.800781 C 507.558594 384.972656 507.296875 386.140625 507.007812 387.300781 C 506.714844 388.460938 506.398438 389.613281 506.050781 390.757812 C 505.703125 391.902344 505.328125 393.039062 504.925781 394.167969 C 504.523438 395.292969 504.089844 396.410156 503.632812 397.515625 C 503.175781 398.621094 502.691406 399.714844 502.179688 400.796875 C 501.667969 401.878906 501.132812 402.945312 500.566406 404 C 500.003906 405.054688 499.414062 406.097656 498.800781 407.125 C 498.183594 408.148438 497.546875 409.160156 496.882812 410.15625 C 496.214844 411.152344 495.527344 412.128906 494.816406 413.089844 C 494.101562 414.050781 493.367188 414.992188 492.609375 415.917969 C 491.851562 416.84375 491.070312 417.75 490.265625 418.636719 C 489.464844 419.523438 488.640625 420.390625 487.792969 421.234375 C 486.949219 422.082031 486.082031 422.90625 485.195312 423.710938 C 484.308594 424.511719 483.402344 425.292969 482.480469 426.054688 C 481.554688 426.8125 480.613281 427.550781 479.652344 428.261719 C 478.691406 428.976562 477.714844 429.664062 476.71875 430.328125 C 475.726562 430.992188 474.714844 431.632812 473.6875 432.25 C 472.664062 432.863281 471.625 433.453125 470.570312 434.015625 C 469.515625 434.582031 468.445312 435.117188 467.363281 435.628906 C 466.285156 436.140625 465.191406 436.625 464.085938 437.085938 C 462.980469 437.542969 461.867188 437.972656 460.738281 438.375 C 459.613281 438.78125 458.476562 439.15625 457.332031 439.503906 C 456.1875 439.847656 455.039062 440.167969 453.878906 440.460938 C 452.71875 440.75 451.550781 441.011719 450.378906 441.246094 C 449.203125 441.480469 448.027344 441.683594 446.84375 441.859375 C 445.660156 442.035156 444.472656 442.179688 443.285156 442.296875 C 442.09375 442.414062 440.902344 442.503906 439.707031 442.5625 C 438.511719 442.621094 437.316406 442.652344 436.121094 442.652344 L 309.925781 442.652344 C 308.730469 442.652344 307.535156 442.621094 306.339844 442.5625 C 305.144531 442.503906 303.953125 442.414062 302.761719 442.296875 C 301.570312 442.179688 300.386719 442.035156 299.203125 441.859375 C 298.019531 441.683594 296.839844 441.480469 295.667969 441.246094 C 294.496094 441.011719 293.328125 440.75 292.167969 440.460938 C 291.007812 440.167969 289.855469 439.847656 288.710938 439.503906 C 287.566406 439.15625 286.433594 438.78125 285.304688 438.375 C 284.179688 437.972656 283.066406 437.542969 281.960938 437.085938 C 280.855469 436.625 279.761719 436.140625 278.679688 435.628906 C 277.601562 435.117188 276.53125 434.582031 275.476562 434.015625 C 274.421875 433.453125 273.382812 432.863281 272.355469 432.25 C 271.332031 431.632812 270.320312 430.992188 269.328125 430.328125 C 268.332031 429.664062 267.355469 428.976562 266.394531 428.261719 C 265.433594 427.550781 264.492188 426.8125 263.566406 426.054688 C 262.640625 425.292969 261.738281 424.511719 260.851562 423.710938 C 259.964844 422.90625 259.097656 422.082031 258.253906 421.234375 C 257.40625 420.390625 256.582031 419.523438 255.78125 418.636719 C 254.976562 417.75 254.195312 416.84375 253.4375 415.917969 C 252.679688 414.992188 251.941406 414.050781 251.230469 413.089844 C 250.519531 412.128906 249.828125 411.152344 249.164062 410.15625 C 248.5 409.160156 247.859375 408.148438 247.246094 407.125 C 246.632812 406.097656 246.042969 405.054688 245.476562 404 C 244.914062 402.945312 244.375 401.878906 243.867188 400.796875 C 243.355469 399.714844 242.871094 398.621094 242.410156 397.515625 C 241.953125 396.410156 241.523438 395.292969 241.121094 394.167969 C 240.71875 393.039062 240.34375 391.902344 239.996094 390.757812 C 239.648438 389.613281 239.328125 388.460938 239.039062 387.300781 C 238.75 386.140625 238.488281 384.972656 238.253906 383.800781 C 238.019531 382.625 237.816406 381.445312 237.640625 380.261719 C 237.464844 379.078125 237.320312 377.890625 237.203125 376.703125 C 237.085938 375.511719 236.996094 374.316406 236.9375 373.121094 C 236.878906 371.925781 236.847656 370.730469 236.847656 369.535156 L 236.847656 275.941406 C 236.847656 274.746094 236.878906 273.550781 236.9375 272.355469 C 236.996094 271.160156 237.085938 269.964844 237.203125 268.777344 C 237.320312 267.585938 237.464844 266.398438 237.640625 265.214844 C 237.816406 264.03125 238.019531 262.851562 238.253906 261.679688 C 238.488281 260.503906 238.75 259.335938 239.039062 258.175781 C 239.328125 257.015625 239.648438 255.863281 239.996094 254.71875 C 240.34375 253.574219 240.71875 252.4375 241.121094 251.308594 C 241.523438 250.183594 241.953125 249.066406 242.410156 247.960938 C 242.871094 246.855469 243.355469 245.761719 243.867188 244.679688 C 244.375 243.597656 244.914062 242.53125 245.476562 241.476562 C 246.042969 240.421875 246.632812 239.378906 247.246094 238.351562 C 247.859375 237.328125 248.5 236.316406 249.164062 235.320312 C 249.828125 234.328125 250.519531 233.347656 251.230469 232.386719 C 251.941406 231.425781 252.679688 230.484375 253.4375 229.558594 C 254.195312 228.632812 254.976562 227.726562 255.78125 226.839844 C 256.582031 225.953125 257.40625 225.085938 258.253906 224.242188 C 259.097656 223.394531 259.964844 222.570312 260.851562 221.765625 C 261.738281 220.964844 262.640625 220.183594 263.566406 219.421875 C 264.492188 218.664062 265.433594 217.929688 266.394531 217.214844 C 267.355469 216.503906 268.332031 215.8125 269.328125 215.148438 C 270.320312 214.484375 271.332031 213.84375 272.355469 213.230469 C 273.382812 212.613281 274.421875 212.023438 275.476562 211.460938 C 276.53125 210.894531 277.601562 210.359375 278.679688 209.847656 C 279.761719 209.335938 280.855469 208.851562 281.960938 208.390625 C 283.066406 207.933594 284.179688 207.503906 285.304688 207.101562 C 286.433594 206.699219 287.566406 206.324219 288.710938 205.976562 C 289.855469 205.628906 291.007812 205.308594 292.167969 205.019531 C 293.328125 204.726562 294.496094 204.464844 295.667969 204.230469 C 296.839844 203.996094 298.019531 203.792969 299.203125 203.617188 C 300.386719 203.441406 301.570312 203.296875 302.761719 203.179688 C 303.953125 203.0625 305.144531 202.972656 306.339844 202.914062 C 307.535156 202.855469 308.730469 202.828125 309.925781 202.828125 Z M 309.925781 202.828125 " fill-opacity="1" fill-rule="nonzero"/><path fill="#1b136a" d="M 326.195312 276.761719 L 419.851562 276.761719 C 421.917969 276.761719 423.980469 276.863281 426.039062 277.066406 C 428.097656 277.269531 430.140625 277.574219 432.167969 277.976562 C 434.199219 278.378906 436.203125 278.882812 438.179688 279.484375 C 440.160156 280.082031 442.105469 280.78125 444.015625 281.570312 C 445.925781 282.363281 447.792969 283.246094 449.617188 284.222656 C 451.441406 285.199219 453.214844 286.261719 454.933594 287.410156 C 456.652344 288.558594 458.3125 289.792969 459.910156 291.105469 C 461.507812 292.417969 463.039062 293.804688 464.503906 295.269531 C 465.964844 296.730469 467.351562 298.261719 468.664062 299.863281 C 469.976562 301.460938 471.207031 303.121094 472.355469 304.84375 C 473.503906 306.5625 474.566406 308.335938 475.542969 310.160156 C 476.515625 311.984375 477.398438 313.855469 478.191406 315.765625 C 478.984375 317.679688 479.679688 319.625 480.277344 321.605469 C 480.878906 323.585938 481.382812 325.589844 481.785156 327.617188 C 482.1875 329.648438 482.492188 331.691406 482.695312 333.753906 C 482.898438 335.8125 483 337.875 483 339.945312 L 483 368.539062 C 483 370.609375 482.898438 372.671875 482.695312 374.734375 C 482.492188 376.792969 482.1875 378.835938 481.785156 380.867188 C 481.382812 382.894531 480.878906 384.902344 480.277344 386.882812 C 479.679688 388.859375 478.984375 390.808594 478.191406 392.71875 C 477.398438 394.632812 476.515625 396.5 475.542969 398.324219 C 474.566406 400.148438 473.503906 401.921875 472.355469 403.644531 C 471.207031 405.363281 469.976562 407.023438 468.664062 408.621094 C 467.351562 410.222656 465.964844 411.753906 464.503906 413.21875 C 463.039062 414.679688 461.507812 416.070312 459.910156 417.382812 C 458.3125 418.695312 456.652344 419.925781 454.933594 421.074219 C 453.214844 422.222656 451.441406 423.289062 449.617188 424.261719 C 447.792969 425.238281 445.925781 426.121094 444.015625 426.914062 C 442.105469 427.707031 440.160156 428.402344 438.179688 429.003906 C 436.203125 429.601562 434.199219 430.105469 432.167969 430.507812 C 430.140625 430.914062 428.097656 431.214844 426.039062 431.417969 C 423.980469 431.621094 421.917969 431.722656 419.851562 431.722656 L 326.195312 431.722656 C 324.128906 431.722656 322.066406 431.621094 320.007812 431.417969 C 317.949219 431.214844 315.90625 430.914062 313.875 430.507812 C 311.847656 430.105469 309.84375 429.601562 307.867188 429.003906 C 305.886719 428.402344 303.941406 427.707031 302.03125 426.914062 C 300.121094 426.121094 298.253906 425.238281 296.429688 424.261719 C 294.605469 423.289062 292.832031 422.222656 291.113281 421.074219 C 289.394531 419.925781 287.734375 418.695312 286.136719 417.382812 C 284.535156 416.070312 283.007812 414.679688 281.542969 413.21875 C 280.082031 411.753906 278.695312 410.222656 277.382812 408.621094 C 276.070312 407.023438 274.839844 405.363281 273.691406 403.644531 C 272.542969 401.921875 271.480469 400.148438 270.503906 398.324219 C 269.53125 396.5 268.648438 394.632812 267.855469 392.71875 C 267.0625 390.808594 266.367188 388.859375 265.765625 386.882812 C 265.167969 384.902344 264.664062 382.894531 264.261719 380.867188 C 263.859375 378.835938 263.554688 376.792969 263.351562 374.734375 C 263.148438 372.671875 263.046875 370.609375 263.046875 368.539062 L 263.046875 339.945312 C 263.046875 337.875 263.148438 335.8125 263.351562 333.753906 C 263.554688 331.691406 263.859375 329.648438 264.261719 327.617188 C 264.664062 325.589844 265.167969 323.585938 265.765625 321.605469 C 266.367188 319.625 267.0625 317.679688 267.855469 315.765625 C 268.648438 313.855469 269.53125 311.984375 270.503906 310.160156 C 271.480469 308.335938 272.542969 306.5625 273.691406 304.84375 C 274.839844 303.121094 276.070312 301.460938 277.382812 299.863281 C 278.695312 298.261719 280.082031 296.730469 281.542969 295.269531 C 283.007812 293.804688 284.535156 292.417969 286.136719 291.105469 C 287.734375 289.792969 289.394531 288.558594 291.113281 287.410156 C 292.832031 286.261719 294.605469 285.199219 296.429688 284.222656 C 298.253906 283.246094 300.121094 282.363281 302.03125 281.570312 C 303.941406 280.78125 305.886719 280.082031 307.867188 279.484375 C 309.84375 278.882812 311.847656 278.378906 313.875 277.976562 C 315.90625 277.574219 317.949219 277.269531 320.007812 277.066406 C 322.066406 276.863281 324.128906 276.761719 326.195312 276.761719 Z M 326.195312 276.761719 " fill-opacity="1" fill-rule="nonzero"/><path fill="#e5e5ff" d="M 336.300781 351.207031 C 336.300781 352.109375 336.214844 353.003906 336.039062 353.890625 C 335.863281 354.777344 335.601562 355.636719 335.257812 356.472656 C 334.910156 357.304688 334.488281 358.097656 333.984375 358.847656 C 333.484375 359.601562 332.914062 360.292969 332.277344 360.933594 C 331.636719 361.570312 330.941406 362.140625 330.191406 362.644531 C 329.441406 363.144531 328.648438 363.570312 327.816406 363.914062 C 326.980469 364.261719 326.121094 364.523438 325.238281 364.699219 C 324.351562 364.875 323.457031 364.960938 322.554688 364.960938 C 321.652344 364.960938 320.757812 364.875 319.871094 364.699219 C 318.988281 364.523438 318.128906 364.261719 317.292969 363.914062 C 316.460938 363.570312 315.667969 363.144531 314.917969 362.644531 C 314.167969 362.140625 313.472656 361.570312 312.832031 360.933594 C 312.195312 360.292969 311.625 359.601562 311.125 358.847656 C 310.621094 358.097656 310.199219 357.304688 309.851562 356.472656 C 309.507812 355.636719 309.246094 354.777344 309.070312 353.890625 C 308.894531 353.003906 308.808594 352.109375 308.808594 351.207031 C 308.808594 350.304688 308.894531 349.410156 309.070312 348.523438 C 309.246094 347.636719 309.507812 346.777344 309.851562 345.941406 C 310.199219 345.109375 310.621094 344.316406 311.125 343.566406 C 311.625 342.8125 312.195312 342.117188 312.832031 341.480469 C 313.472656 340.839844 314.167969 340.269531 314.917969 339.769531 C 315.667969 339.269531 316.460938 338.84375 317.292969 338.5 C 318.128906 338.152344 318.988281 337.890625 319.871094 337.714844 C 320.757812 337.539062 321.652344 337.453125 322.554688 337.453125 C 323.457031 337.453125 324.351562 337.539062 325.238281 337.714844 C 326.121094 337.890625 326.980469 338.152344 327.816406 338.5 C 328.648438 338.84375 329.441406 339.269531 330.191406 339.769531 C 330.941406 340.269531 331.636719 340.839844 332.277344 341.480469 C 332.914062 342.117188 333.484375 342.8125 333.984375 343.566406 C 334.488281 344.316406 334.910156 345.109375 335.257812 345.941406 C 335.601562 346.777344 335.863281 347.636719 336.039062 348.523438 C 336.214844 349.410156 336.300781 350.304688 336.300781 351.207031 Z M 336.300781 351.207031 " fill-opacity="1" fill-rule="nonzero"/><path fill="#e5e5ff" d="M 426.9375 351.207031 C 426.9375 352.109375 426.847656 353.003906 426.671875 353.890625 C 426.496094 354.777344 426.234375 355.636719 425.890625 356.472656 C 425.542969 357.304688 425.121094 358.097656 424.621094 358.847656 C 424.117188 359.601562 423.546875 360.292969 422.910156 360.933594 C 422.273438 361.570312 421.578125 362.140625 420.828125 362.644531 C 420.074219 363.144531 419.285156 363.570312 418.449219 363.914062 C 417.617188 364.261719 416.757812 364.523438 415.871094 364.699219 C 414.984375 364.875 414.089844 364.960938 413.1875 364.960938 C 412.285156 364.960938 411.390625 364.875 410.507812 364.699219 C 409.621094 364.523438 408.761719 364.261719 407.925781 363.914062 C 407.09375 363.570312 406.300781 363.144531 405.550781 362.644531 C 404.800781 362.140625 404.105469 361.570312 403.46875 360.933594 C 402.828125 360.292969 402.257812 359.601562 401.757812 358.847656 C 401.257812 358.097656 400.832031 357.304688 400.488281 356.472656 C 400.140625 355.636719 399.882812 354.777344 399.703125 353.890625 C 399.527344 353.003906 399.441406 352.109375 399.441406 351.207031 C 399.441406 350.304688 399.527344 349.410156 399.703125 348.523438 C 399.882812 347.636719 400.140625 346.777344 400.488281 345.941406 C 400.832031 345.109375 401.257812 344.316406 401.757812 343.566406 C 402.257812 342.8125 402.828125 342.117188 403.46875 341.480469 C 404.105469 340.839844 404.800781 340.269531 405.550781 339.769531 C 406.300781 339.269531 407.09375 338.84375 407.925781 338.5 C 408.761719 338.152344 409.621094 337.890625 410.507812 337.714844 C 411.390625 337.539062 412.285156 337.453125 413.1875 337.453125 C 414.089844 337.453125 414.984375 337.539062 415.871094 337.714844 C 416.757812 337.890625 417.617188 338.152344 418.449219 338.5 C 419.285156 338.84375 420.074219 339.269531 420.828125 339.769531 C 421.578125 340.269531 422.273438 340.839844 422.910156 341.480469 C 423.546875 342.117188 424.117188 342.8125 424.621094 343.566406 C 425.121094 344.316406 425.542969 345.109375 425.890625 345.941406 C 426.234375 346.777344 426.496094 347.636719 426.671875 348.523438 C 426.847656 349.410156 426.9375 350.304688 426.9375 351.207031 Z M 426.9375 351.207031 " fill-opacity="1" fill-rule="nonzero"/><path fill="#e5e5ff" d="M 393.832031 388.085938 C 392.160156 399.679688 382.160156 408.210938 370.871094 408.058594 C 360.320312 407.914062 351.007812 400.210938 348.785156 389.523438 C 363.808594 390.046875 378.847656 389.566406 393.832031 388.085938 Z M 393.832031 388.085938 " fill-opacity="1" fill-rule="nonzero"/><path fill="#b4b2fa" d="M 202.835938 496.847656 L 236.847656 472.203125 C 236.847656 472.203125 327.839844 469.339844 371.308594 514.042969 C 371.308594 514.042969 442.648438 469.265625 509.195312 472.167969 L 530.492188 498.570312 L 471.488281 597.722656 L 299.640625 579.382812 L 215.4375 542.128906 L 202.832031 496.847656 Z M 202.835938 496.847656 " fill-opacity="1" fill-rule="nonzero"/><path fill="#ffaa00" d="M 520.160156 696.109375 C 466.523438 707.203125 413.5625 718.15625 361.257812 728.972656 C 313.242188 718.15625 264.625 707.203125 215.390625 696.109375 C 209.910156 632.796875 204.023438 564.757812 197.679688 491.449219 C 256.015625 503.203125 313.660156 514.820312 370.621094 526.300781 C 425.707031 514.820312 481.453125 503.203125 537.871094 491.449219 C 531.527344 564.757812 525.640625 632.796875 520.160156 696.109375 Z M 520.160156 696.109375 " fill-opacity="1" fill-rule="nonzero"/><path fill="#4a53e2" d="M 204.777344 573.472656 C 204.777344 573.472656 192.714844 584.15625 190.167969 593.582031 C 186.980469 605.390625 183.523438 626.128906 197.679688 638.671875 C 210.308594 649.859375 231.550781 650.207031 247.578125 637.90625 C 248.425781 626.019531 249.273438 614.132812 250.125 602.242188 C 235.46875 607.71875 219.164062 604.863281 207.351562 594.09375 C 206.496094 587.21875 205.636719 580.347656 204.777344 573.472656 Z M 204.777344 573.472656 " fill-opacity="1" fill-rule="nonzero"/><path fill="#4a53e2" d="M 530.785156 573.472656 C 530.785156 573.472656 542.847656 584.15625 545.394531 593.582031 C 548.585938 605.390625 552.039062 626.128906 537.886719 638.671875 C 525.253906 649.859375 504.015625 650.207031 487.984375 637.90625 C 487.136719 626.019531 486.289062 614.132812 485.441406 602.242188 C 500.097656 607.71875 516.398438 604.863281 528.210938 594.09375 C 529.070312 587.21875 529.929688 580.347656 530.785156 573.472656 Z M 530.785156 573.472656 " fill-opacity="1" fill-rule="nonzero"/><path fill="#1b136a" d="M 367.386719 532.585938 C 367.269531 534.882812 362.496094 719.457031 362.675781 723.632812 C 362.738281 725.0625 364.742188 725.027344 364.871094 723.632812 C 365.1875 720.214844 369.652344 537.234375 369.644531 532.585938 C 369.644531 531.125 367.460938 531.144531 367.386719 532.585938 Z M 367.386719 532.585938 " fill-opacity="1" fill-rule="nonzero"/><path fill="#1b136a" d="M 378.523438 537.933594 C 378.484375 536.953125 377.0625 536.960938 377.003906 537.933594 C 376.722656 542.742188 375.59375 677.292969 375.628906 678.53125 C 375.65625 679.617188 377.257812 679.609375 377.304688 678.53125 C 377.355469 677.417969 378.707031 542.492188 378.523438 537.933594 Z M 378.523438 537.933594 " fill-opacity="1" fill-rule="nonzero"/><path fill="#1b136a" d="M 374.199219 694.582031 C 374.191406 693.527344 372.582031 693.527344 372.5625 694.582031 C 372.460938 700.121094 372.464844 700.242188 372.421875 705.398438 C 372.394531 708.445312 372.257812 709.769531 373.207031 709.894531 C 373.5625 709.945312 374.039062 709.714844 374.09375 709.316406 C 374.347656 707.53125 374.320312 707.042969 374.199219 694.582031 Z M 374.199219 694.582031 " fill-opacity="1" fill-rule="nonzero"/><path fill="#1b136a" d="M 352.242188 534.09375 C 352.21875 533.144531 350.761719 533.136719 350.765625 534.09375 C 350.894531 560.589844 353.40625 712.484375 353.503906 714.445312 C 353.558594 715.582031 355.261719 715.59375 355.28125 714.445312 C 355.386719 708.210938 352.085938 528.277344 352.242188 534.09375 Z M 352.242188 534.09375 " fill-opacity="1" fill-rule="nonzero"/><path fill="#ff6a00" d="M 404.335938 539.382812 L 504.8125 516.242188 C 510.742188 514.875 516.269531 519.707031 515.71875 525.765625 C 514.710938 536.832031 513.707031 547.894531 512.699219 558.957031 C 512.351562 562.777344 509.613281 565.945312 505.886719 566.84375 C 473.402344 574.660156 440.917969 582.476562 408.433594 590.292969 C 402.8125 591.644531 397.402344 587.382812 397.402344 581.597656 L 397.402344 548.097656 C 397.402344 543.933594 400.28125 540.320312 404.335938 539.382812 Z M 404.335938 539.382812 " fill-opacity="1" fill-rule="nonzero"/><g clip-path="url(#84807c7410)"><path fill="#e5e5ff" d="M 510.039062 201.410156 C 512.480469 173.035156 522.710938 159.097656 550.167969 156.519531 C 565.238281 155.105469 590.929688 155.949219 607.367188 157.265625 C 623.601562 158.5625 642.046875 159.578125 655.199219 170.382812 C 665.179688 178.582031 669.929688 192.273438 668.148438 204.964844 C 669.140625 212.597656 669.839844 223.828125 667.804688 237.105469 C 665.6875 250.9375 664.566406 258.238281 659.511719 264.363281 C 650.367188 275.445312 631.566406 275.042969 593.972656 274.238281 C 589.09375 274.132812 583.769531 273.671875 576.714844 272.824219 C 574.667969 275.828125 572.058594 278.820312 568.703125 281.480469 C 554.976562 292.367188 535.601562 292.414062 534.484375 289.25 C 533.464844 286.363281 546.125 284.195312 550.996094 269.382812 C 543.09375 268.257812 536.777344 266.753906 529.339844 262.8125 C 514.46875 254.929688 509.855469 241.296875 509.28125 224.507812 C 509.019531 216.832031 509.378906 209.0625 510.039062 201.410156 Z M 510.039062 201.410156 " fill-opacity="1" fill-rule="nonzero"/></g><path fill="#ffaa00" d="M 657.574219 143.910156 C 657.574219 109.148438 629.347656 80.984375 594.578125 81.113281 C 559.929688 81.238281 532.046875 109.242188 532.046875 143.910156 C 532.046875 166.75 544.242188 186.730469 562.464844 197.714844 C 566.761719 200.308594 569.457031 204.890625 569.457031 209.910156 L 569.457031 228.511719 L 620.164062 228.511719 L 620.164062 209.582031 C 620.164062 204.761719 622.746094 200.34375 626.886719 197.878906 C 645.257812 186.925781 657.574219 166.859375 657.574219 143.910156 Z M 657.574219 143.910156 " fill-opacity="1" fill-rule="nonzero"/><path fill="#4a53e2" d="M 573.539062 206.707031 L 616.082031 206.707031 C 620.273438 206.707031 623.671875 210.109375 623.671875 214.300781 L 623.671875 220.511719 C 623.671875 235.675781 611.367188 247.988281 596.210938 247.988281 L 594.804688 247.988281 C 578.878906 247.988281 565.945312 235.050781 565.945312 219.117188 L 565.945312 214.300781 C 565.945312 210.109375 569.347656 206.707031 573.539062 206.707031 Z M 573.539062 206.707031 " fill-opacity="1" fill-rule="nonzero"/><path fill="#4a53e2" d="M 595.917969 253.417969 L 593.703125 253.417969 C 590.625 253.417969 588.128906 250.917969 588.128906 247.835938 C 588.128906 244.195312 590.816406 241.980469 593.703125 241.980469 L 595.917969 241.980469 C 598.996094 241.980469 601.492188 244.476562 601.492188 247.558594 C 601.492188 251.203125 598.804688 253.417969 595.917969 253.417969 Z M 595.917969 253.417969 " fill-opacity="1" fill-rule="nonzero"/><path fill="#1b136a" d="M 617.148438 141.316406 C 616.371094 139.609375 614.644531 138.179688 612.710938 138.148438 C 608.753906 138.085938 607.558594 142.5 607.265625 145.652344 C 607.03125 148.144531 606.839844 150.640625 606.660156 153.140625 C 600.273438 155.507812 593.335938 153.699219 589.113281 147.753906 C 599.785156 134.523438 585.40625 128.539062 584.011719 137.664062 C 583.5 140.996094 584.496094 144.617188 586.175781 147.566406 C 582.046875 151.914062 576.523438 154.113281 570.601562 153.765625 C 569.359375 151.574219 568.058594 149.414062 566.691406 147.292969 C 564.683594 144.171875 561.890625 140.304688 557.613281 141.410156 C 554.070312 142.324219 552.757812 146.4375 556.714844 150.292969 C 560.109375 153.597656 564.648438 155.507812 569.335938 155.996094 C 577.34375 170.480469 582.910156 187.804688 585.308594 201.679688 C 585.441406 202.4375 586.769531 202.269531 586.667969 201.496094 C 584.59375 185.570312 579.519531 170.199219 571.898438 156.113281 C 578.0625 156.074219 583.378906 153.683594 587.496094 149.542969 C 591.941406 155.398438 599.445312 157.925781 606.476562 155.757812 C 603.148438 200.292969 603.375 196.742188 603.039062 203.335938 C 602.964844 204.8125 605.160156 204.761719 605.304688 203.335938 C 606.90625 187.179688 607.910156 170.945312 609.0625 154.742188 C 612.253906 153.207031 615.140625 150.753906 616.707031 147.558594 C 617.65625 145.625 618.070312 143.339844 617.148438 141.316406 Z M 560.980469 150.707031 C 559.398438 149.714844 557.628906 148.445312 556.835938 146.695312 C 556.078125 145.019531 557.019531 143.609375 558.792969 143.464844 C 562.367188 143.171875 564.609375 148.070312 566.164062 150.574219 C 566.746094 151.515625 567.3125 152.464844 567.871094 153.417969 C 565.453125 152.945312 563.109375 152.042969 560.980469 150.707031 Z M 586.273438 139.953125 C 586.195312 138.65625 586.179688 136.433594 587.59375 135.78125 C 589.285156 135 590.625 137.113281 590.707031 138.523438 C 590.84375 140.890625 589.21875 143.683594 587.820312 145.597656 C 586.855469 143.660156 586.378906 141.78125 586.273438 139.953125 Z M 615.109375 144.855469 C 614.488281 147.703125 611.773438 150.40625 609.269531 151.898438 C 609.355469 150.722656 609.441406 149.542969 609.527344 148.363281 C 609.671875 146.433594 609.535156 140.453125 612.710938 140.613281 C 614.765625 140.714844 615.46875 143.199219 615.109375 144.855469 Z M 615.109375 144.855469 " fill-opacity="1" fill-rule="nonzero"/><path fill="#1b136a" d="M 616.078125 221.019531 C 605.117188 224.046875 595.007812 224.988281 583.707031 222.9375 C 580.101562 222.28125 576.636719 221.253906 573.09375 220.363281 C 572.46875 220.207031 572.003906 221.152344 572.636719 221.445312 C 584.492188 226.964844 603.617188 227.148438 616.578125 222.835938 C 617.71875 222.457031 617.257812 220.695312 616.078125 221.019531 Z M 616.078125 221.019531 " fill-opacity="1" fill-rule="nonzero"/><path fill="#1b136a" d="M 612.25 230.425781 C 604.242188 232.890625 598.433594 233.910156 590.066406 232.796875 C 587.636719 232.472656 585.203125 231.644531 582.765625 231.503906 C 582.121094 231.464844 581.953125 232.355469 582.449219 232.664062 C 585.835938 234.78125 593.714844 235.433594 597.707031 235.363281 C 602.855469 235.273438 608.335938 234.464844 613.097656 232.441406 C 614.25 231.953125 613.429688 230.0625 612.25 230.425781 Z M 612.25 230.425781 " fill-opacity="1" fill-rule="nonzero"/><path fill="#1b136a" d="M 274.851562 218.96875 C 266.488281 221.792969 260.195312 228.328125 256.226562 236.082031 C 251.5 245.316406 250.238281 255.808594 249.839844 266.046875 C 249.539062 273.8125 248.78125 343.652344 248.398438 376.503906 C 248.378906 378.199219 251.015625 378.203125 251.035156 376.503906 L 252.175781 273.863281 C 252.292969 263.265625 252.539062 252.386719 256.152344 242.296875 C 259.453125 233.074219 266.019531 224.378906 275.300781 220.605469 C 276.285156 220.207031 275.90625 218.609375 274.851562 218.96875 Z M 274.851562 218.96875 " fill-opacity="1" fill-rule="nonzero"/><path fill="#1b136a" d="M 273.054688 419.921875 C 270.617188 418.574219 267.554688 417.828125 264.875 413.457031 C 263.574219 411.339844 262.691406 408.671875 262.667969 406.070312 C 262.660156 405.332031 262.792969 403.441406 262.824219 403.269531 C 263.042969 401.996094 261.257812 401.453125 260.859375 402.726562 C 260.773438 403 260.523438 403.507812 260.429688 404.09375 C 260.183594 405.660156 260.152344 406.980469 260.414062 408.773438 C 261.507812 416.34375 268.269531 421.875 272.523438 421.894531 C 273.554688 421.902344 273.984375 420.433594 273.054688 419.921875 Z M 273.054688 419.921875 " fill-opacity="1" fill-rule="nonzero"/><path fill="#1b136a" d="M 236.070312 634.519531 C 232.890625 636.035156 230.070312 638.523438 223.761719 639.269531 C 209.523438 640.953125 198.761719 629.683594 198.449219 616.621094 C 198.421875 615.410156 196.621094 615.414062 196.574219 616.621094 C 196.1875 626.085938 201.859375 635.496094 210.367188 639.65625 C 220.449219 644.582031 233.082031 641.542969 237.382812 635.832031 C 238.019531 634.988281 236.835938 634.15625 236.070312 634.519531 Z M 236.070312 634.519531 " fill-opacity="1" fill-rule="nonzero"/><path fill="#1b136a" d="M 528.546875 600.957031 C 527.082031 602.171875 522.3125 610.054688 511.097656 612.527344 C 508.699219 613.058594 506.25 612.933594 503.859375 613.394531 C 502.796875 613.597656 502.925781 615.140625 503.859375 615.417969 C 507.921875 616.625 515.027344 614.535156 519.058594 612.515625 C 522.871094 610.605469 529.085938 605.988281 530.300781 601.976562 C 530.628906 600.898438 529.300781 600.332031 528.546875 600.957031 Z M 528.546875 600.957031 " fill-opacity="1" fill-rule="nonzero"/><path fill="#e5e5ff" d="M 218.613281 349.976562 L 218.324219 329.339844 C 218.277344 326 218.640625 322.269531 217.910156 319 C 217.765625 318.359375 216.730469 318.34375 216.597656 319 C 215.960938 322.1875 216.378906 325.777344 216.40625 329.023438 C 216.652344 360.519531 216.40625 357.769531 216.828125 360.695312 C 216.988281 361.800781 218.503906 361.371094 218.613281 360.453125 C 219.03125 357.035156 218.660156 353.417969 218.613281 349.976562 Z M 218.613281 349.976562 " fill-opacity="1" fill-rule="nonzero"/><path fill="#e5e5ff" d="M 529.707031 339.699219 C 529.539062 338.390625 528.414062 329.351562 528.28125 328.980469 C 528.148438 328.625 527.851562 328.414062 527.804688 328.132812 C 527.660156 327.253906 526.160156 327.449219 526.238281 328.347656 C 526.257812 328.617188 526.023438 328.921875 525.984375 329.292969 C 525.960938 329.507812 526.480469 333.808594 526.507812 334.023438 C 528.070312 346.628906 528.136719 348.867188 529.117188 352.730469 C 529.390625 353.804688 531.039062 353.574219 531.039062 352.472656 C 531.035156 348.203125 530.242188 343.925781 529.707031 339.699219 Z M 529.707031 339.699219 " fill-opacity="1" fill-rule="nonzero"/><path fill="#e5e5ff" d="M 370.109375 470.238281 C 364.566406 470.648438 360.183594 469.648438 355.941406 466.054688 C 351.988281 462.707031 349.515625 457.957031 349.523438 452.730469 C 349.523438 451.589844 347.835938 451.609375 347.765625 452.730469 C 347.007812 464.605469 360.421875 475.039062 370.339844 471.945312 C 371.234375 471.664062 371.128906 470.160156 370.109375 470.238281 Z M 370.109375 470.238281 " fill-opacity="1" fill-rule="nonzero"/><path fill="#1b136a" d="M 340.582031 505.824219 C 331.472656 498.898438 315.453125 491.636719 304.425781 487.789062 C 281.800781 479.886719 257.4375 477.5 242.332031 479.019531 C 241.492188 479.105469 241.453125 480.351562 242.332031 480.359375 C 248.957031 480.398438 255.5625 480.351562 262.171875 480.863281 C 281.902344 482.394531 301.957031 487.695312 319.996094 496.273438 C 326.835938 499.523438 333.175781 503.515625 339.753906 507.238281 C 340.699219 507.773438 341.398438 506.445312 340.582031 505.824219 Z M 340.582031 505.824219 " fill-opacity="1" fill-rule="nonzero"/><path fill="#1b136a" d="M 305.707031 497.226562 C 295.097656 494.605469 284.347656 492.476562 273.671875 490.140625 C 272.832031 489.957031 272.472656 491.242188 273.316406 491.433594 C 283.96875 493.855469 294.601562 496.496094 305.320312 498.632812 C 306.230469 498.816406 306.625 497.453125 305.707031 497.226562 Z M 305.707031 497.226562 " fill-opacity="1" fill-rule="nonzero"/><path fill="#1b136a" d="M 505.851562 483.773438 C 483.644531 483.894531 448.203125 489.378906 415.050781 501.007812 C 414.246094 501.289062 414.589844 502.582031 415.40625 502.300781 C 438.125 494.464844 461.734375 489.25 485.636719 486.804688 C 492.367188 486.117188 499.105469 485.847656 505.851562 485.375 C 506.863281 485.304688 506.890625 483.769531 505.851562 483.777344 Z M 505.851562 483.773438 " fill-opacity="1" fill-rule="nonzero"/><path fill="#e5e5ff" d="M 300.898438 417.601562 C 292.292969 412.804688 285.5625 405.128906 282.144531 390.394531 C 280.140625 381.742188 280.058594 376.992188 275.742188 326.582031 C 275.660156 325.59375 274.105469 325.582031 274.1875 326.582031 C 275.34375 341.089844 276.472656 355.597656 277.660156 370.097656 C 278.6875 382.644531 279.824219 395.8125 286.667969 406.746094 C 289.859375 411.835938 294.390625 416.730469 299.992188 419.152344 C 301.023438 419.601562 301.9375 418.179688 300.898438 417.601562 Z M 300.898438 417.601562 " fill-opacity="1" fill-rule="nonzero"/><path fill="#e5e5ff" d="M 341 424.863281 C 335.699219 423.535156 330.328125 422.46875 324.988281 421.3125 C 324.011719 421.101562 323.59375 422.601562 324.574219 422.816406 C 329.914062 423.988281 335.242188 425.25 340.617188 426.25 C 341.515625 426.417969 341.910156 425.089844 341 424.863281 Z M 341 424.863281 " fill-opacity="1" fill-rule="nonzero"/><path fill="#e5e5ff" d="M 446.550781 299.40625 C 445.878906 299.15625 445.394531 300.28125 446.058594 300.578125 C 451.085938 302.816406 455.222656 306.691406 457.820312 311.539062 C 460.527344 316.585938 461.097656 321.9375 460.3125 327.539062 C 460.171875 328.535156 461.582031 329.003906 461.875 327.96875 C 464.675781 318.0625 458.402344 303.8125 446.550781 299.40625 Z M 446.550781 299.40625 " fill-opacity="1" fill-rule="nonzero"/><path fill="#1b136a" d="M 537.671875 255.578125 C 534.261719 255.472656 530.476562 256.117188 525.304688 252.011719 C 517.046875 245.457031 516.199219 234.691406 516.21875 224.289062 C 516.230469 216.847656 516.433594 204.769531 516.464844 196.878906 C 516.496094 189.25 516.660156 188.523438 516.136719 187.121094 C 515.902344 186.480469 515.113281 186.511719 514.867188 187.121094 C 514.328125 188.457031 514.441406 190.023438 514.394531 191.445312 C 514.328125 193.429688 513.714844 219.746094 513.695312 225.148438 C 513.660156 235.65625 514.988281 247.210938 523.789062 254.191406 C 527.566406 257.183594 533.492188 259.789062 538.222656 257.609375 C 539.257812 257.128906 538.671875 255.609375 537.671875 255.578125 Z M 537.671875 255.578125 " fill-opacity="1" fill-rule="nonzero"/><path fill="#1b136a" d="M 665.3125 216.042969 C 663.636719 236.769531 663.488281 238.617188 663.601562 242.410156 C 663.628906 243.253906 664.949219 243.511719 665.132812 242.617188 C 666.050781 238.097656 666.328125 234.117188 667.949219 216.042969 C 668.101562 214.355469 665.449219 214.355469 665.3125 216.042969 Z M 665.3125 216.042969 " fill-opacity="1" fill-rule="nonzero"/><path fill="#1b136a" d="M 199.261719 243.34375 C 192.53125 239.371094 141.664062 212.339844 141.519531 212.265625 C 140.589844 211.769531 139.765625 213.167969 140.691406 213.679688 C 140.84375 213.761719 190.804688 241.164062 198.367188 244.878906 C 199.382812 245.378906 200.257812 243.933594 199.261719 243.34375 Z M 199.261719 243.34375 " fill-opacity="1" fill-rule="nonzero"/><path fill="#1b136a" d="M 212.410156 216.683594 C 202.617188 207.757812 192.460938 199.175781 182.332031 190.636719 C 181.691406 190.097656 180.761719 190.996094 181.398438 191.570312 C 191.230469 200.4375 201.113281 209.332031 211.28125 217.8125 C 212.058594 218.460938 213.179688 217.382812 212.410156 216.683594 Z M 212.410156 216.683594 " fill-opacity="1" fill-rule="nonzero"/><path fill="#1b136a" d="M 246.136719 195.140625 C 241.039062 183.964844 235.152344 173.101562 229.621094 162.132812 C 229.082031 161.066406 227.484375 162.003906 228.015625 163.070312 C 233.5 174.058594 238.6875 185.273438 244.601562 196.035156 C 245.164062 197.058594 246.601562 196.160156 246.136719 195.140625 Z M 246.136719 195.140625 " fill-opacity="1" fill-rule="nonzero"/><path fill="#1b136a" d="M 566.464844 404.171875 C 557.804688 417.363281 549.347656 430.742188 541.332031 444.332031 C 540.863281 445.125 542.050781 445.800781 542.554688 445.046875 C 551.324219 431.929688 559.714844 418.503906 567.84375 404.976562 C 568.378906 404.089844 567.027344 403.316406 566.464844 404.171875 Z M 566.464844 404.171875 " fill-opacity="1" fill-rule="nonzero"/><path fill="#1b136a" d="M 620.480469 414.03125 C 609.234375 421.378906 598.4375 429.488281 587.488281 437.265625 C 576.507812 445.0625 565.523438 452.84375 554.679688 460.824219 C 554 461.324219 554.632812 462.472656 555.355469 461.980469 C 566.472656 454.414062 577.449219 446.648438 588.4375 438.898438 C 599.417969 431.152344 610.660156 423.660156 621.335938 415.496094 C 622.179688 414.851562 621.417969 413.417969 620.480469 414.03125 Z M 620.480469 414.03125 " fill-opacity="1" fill-rule="nonzero"/><path fill="#1b136a" d="M 598.882812 471.070312 C 594.070312 472.804688 575.996094 480.015625 572.386719 481.617188 C 571.535156 482 572.140625 483.445312 573.027344 483.132812 C 576.855469 481.796875 594.847656 474.695312 599.550781 472.660156 C 600.449219 472.269531 599.808594 470.738281 598.882812 471.070312 Z M 598.882812 471.070312 " fill-opacity="1" fill-rule="nonzero"/><path fill="#1b136a" d="M 217.183594 572.449219 L 214.164062 527.71875 C 213.972656 524.921875 214.164062 521.671875 213.351562 518.976562 C 213.179688 518.394531 212.171875 518.285156 212.0625 518.976562 C 211.617188 521.765625 212.203125 524.914062 212.386719 527.71875 L 215.289062 572.449219 C 215.6875 578.410156 215.722656 584.53125 216.613281 590.4375 C 216.757812 591.386719 218.226562 591.121094 218.242188 590.214844 C 218.347656 584.328125 217.570312 578.324219 217.183594 572.449219 Z M 217.183594 572.449219 " fill-opacity="1" fill-rule="nonzero"/><path fill="#1b136a" d="M 223.761719 677.898438 C 222.011719 669.289062 222.75 673.191406 221.789062 669.191406 C 221.59375 668.363281 220.410156 668.730469 220.539062 669.539062 C 220.777344 671.015625 220.917969 672.503906 221.207031 673.976562 C 222.921875 682.703125 223.023438 684.136719 223.871094 686.761719 C 224.117188 687.535156 225.433594 687.453125 225.359375 686.558594 C 225.117188 683.648438 224.34375 680.757812 223.761719 677.898438 Z M 223.761719 677.898438 " fill-opacity="1" fill-rule="nonzero"/></svg>